<?xml version="1.0" ?><svg enable-background="new 0 0 1080 1080" id="katman_1" version="1.1" viewBox="0 0 1080 1080" xml:space="preserve" xmlns="http://www.w3.org/2000/svg" xmlns:xlink="http://www.w3.org/1999/xlink"><g><path d="M189.9,892.1c-23.6-23.1-44.3-48.8-62.5-76.3c-36-54.3-60.3-113.4-73.2-177.3c-7.9-39.3-11-79.1-9-119.1   c5.4-108.7,41.8-206,110.5-290.5c68.6-84.4,156-140.4,261.2-168.2c26.3-7,53.1-11.3,80.3-13.8c27.5-2.5,54.9-2.9,82.3-0.6   C682,54.6,773.3,90.8,853.5,155.1c13.3,10.6,25.9,22,38,34c0.9,0.9,2.3,1.4,2.4,3c-0.4,2.1-2.1,3.4-3.5,4.8   C845,242.2,800,288,754.1,332.8c-36.6,35.7-72.4,72.3-108.9,108.1c-1.3,1.3-2.5,2.7-4,3.7c-2.3,1.4-4.7,2.3-7.2,3.2   c-22.8,8.7-40.5,23.9-54.2,43.8c-1,1.5-1.9,3.1-3.2,4.4c-1,1-2.1,1.8-3.2,0.1c-1.2-3.1-0.7-6.2-0.7-9.4c-0.1-10.4,0-20.9,0-31.4   c0-1.8,0.3-3.7-0.8-5.3c-1.9-2-4.3-1.5-6.6-1.5c-34.4,0-68.9,0-103.3,0c-6.9,0-7.4,0.3-7.1,7.4c1.3,44.9,0.9,89.8,1,134.8   c0,11.6,0.1,23.3-0.1,34.9c0.2,10.8,0.1,21.5,0.1,32.3c0,1.8,0,3.7-1,5.3c-1.8,1.8-2.3,0.2-2.5-1.1c-0.6-2.6-0.3-5.3-0.3-7.9   c0-6.8-0.1-13.6,0.1-20.6c-2.7,2.3-4.9,4.7-7.2,7.1c-16.9,17.6-35.1,34-52.4,51.2c-1.5,1.4-3.2,5.9-6.3,1.3   c-0.5-2.8-0.3-5.7-0.3-8.5c0-76.1,0-152.3,0-228.4c0-2.4,0.7-5.1-1.6-7c-2-1-4.2-0.8-6.4-0.8c-34,0-68,0-101.9,0   c-7.9,0-8,0.1-8,8.2c0,113.4,0,226.9,0,340.3c0,3.2,0,6.3,0,9.5c-0.2,1.9,0.7,3.2,2.4,4c0.3,0.4,0.5,0.8,0.6,1.3   c-0.1,2.3-1.8,3.5-3.2,4.9c-24.6,24.3-49.7,48.1-73.9,72.9C192.5,890.6,191.6,891.8,189.9,892.1z" fill="#0176B4"/><path d="M270.1,812c0-0.3,0-0.6,0-0.9c2.5-2.4,5.6-1.7,8.5-1.7c32.5-0.1,65,0,97.5,0c1.8,0,3.7,0,5.5-0.1   c2.4-0.1,3.6-1.3,3.7-3.8c0.1-1.7,0.1-3.3,0.1-5c0-22,0-44,0-66c0-2.5-0.1-5,0.3-7.5c1.1-3.7,2.9-2.2,4.5-0.4   c5.2,5.6,9.9,11.6,14.8,17.4c15.4,18.2,30.9,36.4,46.1,54.8c1.3,1.5,2.7,2.9,3.1,5c0.1,4.3,2.6,5.5,6.5,5.5   c35.2-0.1,70.3,0,105.5-0.1c5.6,0,6.1-0.6,6.1-7.1c0-44.6,0-89.3,0-133.9c0-21.3,0-42.6,0-64c0-5.7,0.4-11.3,2-16.8   c1.8-3.2,3.5-1.6,4.9,0.3c3.8,4.7,7.3,9.5,10.8,14.3c25.9,35.3,52,70.4,78,105.6c10.3,13.9,20.6,27.9,30.8,41.8   c0.9,1.2,1.8,2.4,2.2,3.9c0.8,14.5,0.2,29,0.4,43.5c0,1.7,0,3.3,0,5c0.1,6.9,0.6,7.5,7.4,7.5c12.5,0,25,0,37.5,0   c22.2,0,44.3,0,66.5,0c8.1,0,8.6-0.4,8.6-8.3c0-66,0.8-131.9-0.4-197.9c-0.6-31.1-4.6-62.1-18.3-90.9c-7.6-16-18-29.9-31-41.8   c-1.3-1.2-2.9-2.3-3.7-4c-0.4-3,1.6-2.3,3.1-1.9c2.1,0.6,3.9,1.9,5.8,2.9c29.5,16.1,59.1,32.1,88.6,48.1   c20.8,11.3,41.6,22.5,62.3,33.8c25.9,14,51.8,28,77.7,42.2c6.3,3.4,12.6,6.8,18.9,10.2c3,1.6,6.5,2.7,8.3,6.1   c-1.1,12.1-3.4,24.1-6,35.9c-4.3,20-9.6,39.8-16.4,59.2c-10.5,29.8-23.6,58.3-39.3,85.7c-13.6,23.5-29,45.7-46.1,66.7   c-8.3,10.2-17.6,19.6-26.2,29.5c-10,11.3-21.3,21.1-32.6,31c-19.4,17.1-40.3,32.2-62.2,46.1c-18.1,11.4-37,21.5-56.3,30.5   c-28.1,13-57.4,23.1-87.5,30.5c-19.1,4.7-38.4,8.2-57.8,10.7c-8.9,1.2-18,1.7-27,2.4c-20.3,1.6-40.5,0.8-60.8,0.6   c-12.9-0.2-25.7-2-38.6-3.6c-22.6-2.8-44.8-7.4-66.7-13.2c-19.2-5.1-37.9-11.5-56.3-19c-4.1-1.7-8.5-2.9-12-5.8   c-2.1-1.8-3-4.3-4-6.8c-20.5-53.1-40.9-106.3-61.3-159.4C273.5,823.4,270.4,818.1,270.1,812z" fill="#024162"/><path d="M1032.8,608c-32.4-17.6-64.9-35.2-97.3-52.8c-26.7-14.5-53.5-29-80.2-43.6c-27.9-15.2-55.8-30.3-83.6-45.6   c-1.2-0.7-2.4-1.1-3.8-1c-2.6,0.4-4.4-1.4-6.2-2.7c-19.7-13.5-41.7-20-65.4-22.2c-16.8-1.5-33.2-0.1-49.5,3.8   c-1.9,0.4-3.8,1.5-5.7-0.1c1.3-1.5,2.6-3,4-4.4c31.7-31.7,63-63.8,95.2-95c50.9-49.5,100.5-100.2,151-150.1   c0.8-0.8,1.7-1.5,2.6-2.3c11.3,10.2,21,21.7,30.6,33.4c48.1,58.7,81.2,125,99,198.8c5.7,23.6,9.5,47.5,11.7,71.6   c1.9,20.5,2.1,40.9,1.8,61.4C1036.6,574.2,1034.7,591.1,1032.8,608z" fill="#025F8F"/><path d="M270.1,812c7.4,16.7,13.3,33.9,20,50.9c11.5,29.4,22.7,58.8,34,88.2c5.6,14.7,11.3,29.4,16.9,44.1   c-25.9-10.9-50.4-24.6-73.8-40.1c-27.8-18.4-53.8-39.2-77.1-63.1c7-7.1,13.9-14.4,20.9-21.4c18.5-18.3,37-36.4,55.5-54.6   C267.7,814.8,268.9,813.3,270.1,812z" fill="#025F8F"/><path d="M641,443.9c32.6-8.8,64.8-7.7,96.5,4.2c11,4.1,20.9,10.2,30.3,17c31,25.3,45.4,59.4,51,97.9   c3,20.8,3.9,41.7,3.8,62.7c-0.3,59.6-0.1,119.2,0,178.9c0,4.9-1.2,6.6-6.4,6.5c-37-0.2-73.9-0.2-110.9,0c-4,0-5.1-1.1-5.1-5   c0.2-15.8,0.1-31.6,0.1-47.5c0-2.2-0.2-4.3-0.3-6.5c-2-2.6-1.5-5.7-1.5-8.7c0-46.1,0.2-92.2-0.1-138.3c-0.1-15.5-3.2-30.4-11-44.1   c-9.8-17-25.1-24.5-44.1-25.6c-30.9-1.7-54.3,17.7-64.2,44.4c-0.8,2.2-1.1,4.6-3,6.2c-1.8,6.7-2,13.5-2,20.3c0,66,0,132,0,198   c0,7.9,0.6,6.6-6.7,6.6c-35.8,0-71.7,0-107.5,0c-6.8,0-6.8,0-6.9-6.9c0-0.7-0.1-1.3-0.2-2c-1.3-2.4-1.5-5-1.5-7.7   c0-40.9,0-81.8,0-122.6c0-2.6-0.5-5.4,1.8-7.5c1.1-10.7,0.3-21.5,0.6-32.2c0.1-2,0.1-4,0.2-5.9c1.2-2.2,2.9-4,4.6-5.8   c34.5-34.5,68.7-69.4,103.7-103.4c22.5-21.8,44.4-44.1,66.7-66.1c1.6-1.5,3.4-2.6,5-4C636.3,445.8,638.7,444.8,641,443.9z" fill="#DCDCDC"/><path d="M266.1,809c-0.1-1.7-0.2-3.3-0.2-5c0-117.1,0-234.1-0.1-351.2c0-4.6,0.8-6.1,5.8-6.1   c36.5,0.2,72.9,0.1,109.4,0.1c1.7,0,3.3,0.1,5,0.2c0.9,1.6,0.5,3.3,0.5,4.9c0,79.1,0,158.2,0.1,237.3c0,4-1.2,6.9-4,9.7   c-35.9,35.7-71.6,71.6-107.5,107.3C272.7,808.7,270.4,812.7,266.1,809z" fill="#FEFEFE"/><path d="M634,446.8c-0.7,2-2.4,3.1-3.8,4.5c-18,18-35.7,36.4-54.1,54C535.6,544,496.8,584.3,457,623.5   c-0.9,0.9-2,1.7-3,2.5c0-10.8-0.1-21.6-0.1-32.4c0-47.3,0.2-94.5-0.8-141.8c-0.1-4.3,1.2-5.1,5.2-5.1c36.9,0.1,73.9,0.1,110.8,0.2   c1.6,0,4.6-1.8,4.8,2c-0.9,12.2-0.2,24.4-0.4,36.6c-0.1,3.1,0,6.3,0,9.4c0,0.9-0.2,2.1,1.4,1.8C589.4,474,608,456.1,634,446.8z" fill="#FEFEFE"/><path d="M325.9,397.9c-25.4-0.7-46.7-9.4-59.6-32.5c-21.8-39.1,2.3-86.2,46.7-92.4c2.6-0.4,5.2-1.6,7.7-1.7   c23.9-0.3,45.8,5.2,61,25.3c26.2,34.6,12.4,88.5-37.6,99.3C338.3,397.2,332.1,398,325.9,397.9z" fill="#FEFEFE"/><path d="M266.1,809c2.3,1.6,3.9,0.5,5.6-1.2c37.3-37.4,74.7-74.7,112.1-112c2.2-2.2,2.2-4.6,2.2-7.3   c0-80.5,0-161,0-241.4c2,1.3,0.9,3.4,0.9,5c0.1,80,0.1,160,0.1,239.9c0,1,0.1,2,0.1,3c1,1,1.3,2.3,1.4,3.6c0.2,7.6,0.2,15.2,0,22.8   c0,1.3-0.3,2.6-1.4,3.6c-0.1,26.6-0.3,53.3-0.1,79.9c0,4.8-1.2,6.1-6,6c-35.1-0.2-70.3-0.1-105.4-0.1c-1.8,0-3.7,0.1-5.5,0.2   C268.8,810.2,266,812.5,266.1,809z" fill="#DCDCDC"/><path d="M387.1,725c0-10,0-20,0-30c1-0.9,2-1.7,3-2.6c19.9-19.6,39.8-39.2,59.7-58.7c0.7-0.7,1.5-1.3,3.3-3   c0,11.9,0,22.7,0,33.5c0,27.6,0,55.3,0,82.9c0,18.3-0.2,36.6-0.3,54.9c-7.6-7.2-13.6-15.8-20.5-23.6   c-10.2-11.6-19.8-23.5-29.8-35.3C397.5,737,392.3,731.1,387.1,725z" fill="#025F8F"/><path d="M575,496.9c-1,1.3-1.9,0.7-1.8-0.5c0.2-15.7-0.8-31.3,0.5-47c0-0.1,0.2-0.3,0.3-0.4   c0.1,14.4,0.1,28.9,0.3,43.3C574.2,493.8,573.2,495.6,575,496.9z" fill="#DFEBF3"/><path d="M576.1,586c2.9-23,27.4-47.3,51.4-51c18.9-2.9,36.6-0.7,51.4,12.8c11.3,10.3,16.2,24.1,19.1,38.6   c1.8,8.8,2.4,17.8,2.4,26.8c0,45.1,0,90.3,0,135.4c0,1.2-0.2,2.3-0.3,3.5c-4.7-3.8-7.6-9.1-11.2-13.9   c-21.9-29.4-43.7-58.9-65.4-88.4c-15.4-20.8-30.6-41.7-45.9-62.5C577.2,586.8,576.6,586.4,576.1,586z" fill="#025F8F"/></g></svg>