<?xml version="1.0" ?><svg viewBox="0 0 22.582 22.582" xmlns="http://www.w3.org/2000/svg" fill = "#000"><g data-name="Layer 2" id="Layer_2"><g data-name="Layer 1" id="Layer_1-2"><path d="M22.482.1a.341.341,0,0,0-.367-.077L.217,8.593a.342.342,0,0,0,0,.636L5.69,11.418l-1.971.652a.345.345,0,0,0-.135.567l6.358,6.357a.344.344,0,0,0,.567-.134l.652-1.971,2.192,5.478a.343.343,0,0,0,.637,0L22.558.467A.34.34,0,0,0,22.482.1ZM13.137,9.446l-.72-1.668L13.931,6.7l.536,1.241c.029.21,1.266.612,1.416.713L14.8,10.164ZM14.4,10.734l-1.082,1.514-2.08-.9-.9-2.084,1.514-1.082c.117.182.7,1.843.894,1.836Zm.647-3.193L14.5,6.289l2.556-1.825c.1.158.24.737.445.8l.615.265L16.291,8.08ZM1.272,8.915,16.42,2.987l.36.834L6.641,11.061Zm8.761,9.2L4.46,12.546,6.6,11.839l4.144,4.145Zm1.054-2.755L7.215,11.492l2.548-1.82.895,2.073a.341.341,0,0,0,.179.179l2.069.893Zm2.581,5.948-2.151-5.373L18.76,5.8l.835.361ZM19.844,5.525,17.9,4.685l-.84-1.947L21.636.946ZM1.728,15.786a1.721,1.721,0,0,1-1.209-2.92.34.34,0,0,1,.483,0c.352.395-.387.7-.3,1.209a1.036,1.036,0,0,0,1.752.726l.921-.921c.308-.318.8.175.484.484C3.3,14.888,2.6,15.862,1.728,15.786Zm8.63,5.145c.424.6-.779,1-1.21.983a1.744,1.744,0,0,1-.933-3.195c.309-.317.8.174.483.484l-.276.276a1.027,1.027,0,0,0,1.452,1.452A.342.342,0,0,1,10.358,20.931ZM7.085,17.106a.342.342,0,0,1,0,.484L4.2,20.472a.342.342,0,1,1-.483-.484L6.6,17.106A.343.343,0,0,1,7.085,17.106ZM5.472,15.977,1.3,20.15a.343.343,0,0,1-.484-.485l4.172-4.172C5.3,15.175,5.792,15.667,5.472,15.977Zm2.61-13.24a.343.343,0,0,1,.685,0A.343.343,0,0,1,8.082,2.737ZM10.82.912a.342.342,0,0,1,.684,0A.342.342,0,0,1,10.82.912Zm-6.844.913a.342.342,0,0,1,.684,0A.342.342,0,0,1,3.976,1.825ZM1.7,5.474a.342.342,0,0,1,.684,0A.342.342,0,0,1,1.7,5.474Zm19.1,6.223a.342.342,0,0,1,.327-.6A.342.342,0,0,1,20.794,11.7Zm1.082-5.238a.342.342,0,0,1-.6-.327A.342.342,0,0,1,21.876,6.459Zm-.189,8.728a.342.342,0,0,1-.6-.327A.342.342,0,0,1,21.687,15.187ZM19.7,19.848a.342.342,0,0,1-.6-.327A.342.342,0,0,1,19.7,19.848Zm-1.369-1.825a.342.342,0,0,1-.6-.327A.342.342,0,0,1,18.328,18.023Z" id="start-up"/></g></g></svg>